{"title":"Kung.Fu.Panda.3.2016.Complete.HDRip.XVID.AC3-5.1.HQ.Hive-CM8","uid":14028506,"size":1585234500,"categoryP":"video","categoryS":"movies","magnet":"?xt=urn:btih:57ba5af5b3f383c460c9e1c45ef694e3e71013cb&amp;dn=Kung.Fu.Panda.3.2016.Complete.HDRip.XVID.AC3-5.1.HQ.Hive-CM8&amp;tr=udp%3A%2F%2Ftracker.leechers-paradise.org%3A6969&amp;tr=udp%3A%2F%2Fzer0day.ch%3A1337&amp;tr=udp%3A%2F%2Fopen.demonii.com%3A1337&amp;tr=udp%3A%2F%2Ftracker.coppersurfer.tk%3A6969&amp;tr=udp%3A%2F%2Fexodus.desync.com%3A6969","seeders":5,"leechers":0,"uploader":"LegendET","files":3,"time":1458944613,"description":"[center][img]http://i.imgur.com/emlMbuX.jpg[/img]\r\n\r\n \r\n[color=blue][size=4][b]Kung.Fu.Panda.3.2016.Complete.HDRip.XVID.AC3-5.1.HQ.Hive-CM8[/b][/size][/color]\r\n\r\nThx Hive\r\n\r\nCM8 Doing It Right The First Time \r\n\r\nSources:\r\n\r\nVideo: 1080p Russian Itunes\r\nAudio: Itunes English Stereo + Russian 5.1 Track\r\n\r\n\r\nNotes:\r\ndecided to make a rip with full length from the proper new itunes version, \r\nit has now the ending and the movie is now longer too by 4mins\r\n\r\ni first tried just to append the missing credits to the old release (1h19) and got a runtime of 1h31\r\nthe proper has now 1h35, maybe the old one was cut too, dont know, \r\neither way this one is complete\r\n\r\nthe itunes web-dl only came with stereo audio but with russian 5.1 track\r\nlike on the r5 rips i entered the english stereo into the russian 5.1 track, \r\nand bam now we have  5.1 track like which sounds like retail audio.\r\n\r\nif anyone wants to use that audio to mux to the 720p or 1080p version, i dont mind\r\n\r\nEncode:\r\nonly added sharpness\r\n\r\n\r\nenjoy\r\n\r\nVideo: 720x304 @bitrate 1800 2pass\r\nAudio: AC3 5.1 @384\r\nSample: yes included\r\n\r\n\r\n \nhttp://www.imdb.com/title/tt2267968/\r\n\r\n\r\nGeneral\r\nGeneral\r\nComplete name                  : Kung.Fu.Panda.3.2016.Complete.HDRip.XVID.AC3-5.1.HQ.Hive-CM8.avi\r\nFormat                         : AVI\r\nFormat/Info                    : Audio Video Interleave\r\nFile size                      : 1.45 GiB\r\nDuration                       : 1h 34mn\r\nOverall bit rate               : 2 194 Kbps\r\nWriting application            : Nandub v1.0rc2\r\nWriting library                : Nandub build 1853/release\r\n\r\nVideo\r\nID                             : 0\r\nFormat                         : MPEG-4 Visual\r\nFormat profile                 : Advanced   \r\nFormat settings, BVOP          : 2\r\nFormat settings, QPel          : Yes\r\nFormat settings, GMC           : No warppoints\r\nFormat settings, Matrix        : Default (H.263)\r\nMuxing mode                    : Packed bitstream\r\nCodec ID                       : XVID\r\nCodec ID/Hint                  : XviD\r\nDuration                       : 1h 34mn\r\nBit rate                       : 1 801 Kbps\r\nWidth                          : 720 pixels\r\nHeight                         : 304 pixels\r\nDisplay aspect ratio           : 2.35:1\r\nFrame rate                     : 23.976 fps\r\nColor space                    : YUV\r\nChroma subsampling             : 4:2:0\r\nBit depth                      : 8 bits\r\nScan type                      : Progressive\r\nCompression mode               : Lossy\r\nBits/(Pixel*Frame)             : 0.343\r\nStream size                    : 1.19 GiB (82%)\r\nWriting library                : XviD 1.2.1 (UTC 2008-12-04)\r\n\r\nAudio\r\nID                             : 1\r\nFormat                         : AC-3\r\nFormat/Info                    : Audio Coding 3\r\nMode extension                 : CM (complete main)\r\nFormat settings, Endianness    : Big\r\nCodec ID                       : 2000\r\nDuration                       : 1h 34mn\r\nBit rate mode                  : Constant\r\nBit rate                       : 384 Kbps\r\nChannel(s)                     : 6 channels\r\nChannel positions              : Front: L C R, Side: L R, LFE\r\nSampling rate                  : 48.0 KHz\r\nBit depth                      : 16 bits\r\nCompression mode               : Lossy\r\nDelay relative to video        : 14ms\r\nStream size                    : 261 MiB (17%)\r\nAlignment                      : Split accross interleaves\r\nInterleave, duration           : 42 ms (1.00 video frame)\r\nInterleave, preload duration   : 500 ms\r\n\r\n\r\n[img]http://i.imgur.com/cCwtO1U.png[/img]\r\n[img]http://i.imgur.com/yruV3YQ.png[/img]\r\n[img]http://i.imgur.com/p4GDzMB.png[/img]\r\n[img]http://i.imgur.com/6ydbHXX.png[/img]\r\n[img]http://i.imgur.com/X84m4Ux.png[/img]\r\n[img]http://i.imgur.com/OP6YL2o.png[/img]\r\n\r\n\r\n\r\nPlot\r\n\r\nContinuing his &quot;legendary adventures of awesomeness&quot;, Po must face two hugely epic, but different threats: one supernatural and the other a little closer to his home.\r\n\r\n\r\n\r\nCast overview, first billed only:\r\nJack Black\t...\tPo (voice)\r\nBryan Cranston\t...\tLi (voice)\r\nDustin Hoffman\t...\tShifu (voice)\r\nAngelina Jolie\t...\tTigress (voice)\r\nJ.K. Simmons\t...\tKai (voice)\r\nJackie Chan\t...\tMonkey (voice)\r\nSeth Rogen\t...\tMantis (voice)\r\nLucy Liu\t...\tViper (voice)\r\nDavid Cross\t...\tCrane (voice)\r\nKate Hudson\t...\tMei Mei (voice)\r\nJames Hong\t...\tMr. Ping (voice)\r\nRandall Duk Kim\t...\tOogway (voice)\r\nSteele Gagnon\t...\tBao (voice)\r\nLiam Knight\t...\tLei Lei (voice)\r\nWayne Knight\t...\tBig Fun / Hom-Lee (voice)  \r\n\r\nLOOKING FOR ANYTHING YOU WANT TO LOOK AND SOUND BETTER\r\n\r\nCOME FIND US WE DONT BITE[/center]","torrent":{"xt":"urn:btih:57ba5af5b3f383c460c9e1c45ef694e3e71013cb","amp;dn":"Kung.Fu.Panda.3.2016.Complete.HDRip.XVID.AC3-5.1.HQ.Hive-CM8","amp;tr":["udp%3A%2F%2Ftracker.leechers-paradise.org%3A6969","udp%3A%2F%2Fzer0day.ch%3A1337","udp%3A%2F%2Fopen.demonii.com%3A1337","udp%3A%2F%2Ftracker.coppersurfer.tk%3A6969","udp%3A%2F%2Fexodus.desync.com%3A6969"],"infoHash":"57ba5af5b3f383c460c9e1c45ef694e3e71013cb","infoHashBuffer":{"type":"Buffer","data":[87,186,90,245,179,243,131,196,96,201,225,196,94,246,148,227,231,16,19,203]},"announce":[],"urlList":[]}}